<svg xmlns="http://www.w3.org/2000/svg" height="380" width="1200" id="svg145" version="1.1"
    viewBox="-0.5 3.5 56 1">
    <defs id="defs139">
        <style id="style147">.cls-1{fill:#0f0}</style>
    </defs>
    <g transform="translate(14.8503 -144.52856)" id="layer1">
        <g transform="translate(.1323 -.13229)" id="g244">
            <path class="cls-1" id="polygon151"
                transform="translate(-14.9826 144.66085) scale(.26458)" fill="#0f0"
                d="M152.51 3.47l2-3.47h-22.07v3.47z" />
            <path class="cls-1" id="polygon153"
                transform="translate(-14.9826 144.66085) scale(.26458)" fill="#0f0"
                d="M152.51 17.5l2-3.47h-22.07v3.47z" />
            <path class="cls-1" id="polygon155"
                transform="translate(-14.9826 144.66085) scale(.26458)" fill="#0f0"
                d="M152.51 31.53l2-3.47h-22.07v3.47z" />
            <path class="cls-1"
                d="M37.57953 147.24583v-.52916a2.05581 2.05581 0 00-2.05582-2.05582h-3.78618v8.34496h.9181v-3.70416h1.7198l2.14312 3.70416h1.05833l-2.14312-3.70416h.0873a2.05581 2.05581 0 002.05846-2.05582zm-4.9239-1.66687h2.86808a1.14035 1.14035 0 011.13771 1.13771v.52916a1.14035 1.14035 0 01-1.1377 1.13771h-2.86809z"
                id="path157" fill="#0f0" stroke-width=".26458" />
            <path class="cls-1"
                d="M-9.1406 147.24583v-.52916a2.05581 2.05581 0 00-2.05581-2.05582h-3.78619v8.34496h.9181v-3.70416h1.72774l2.14312 3.70416h1.05833l-2.14312-3.70416h.0873a2.05581 2.05581 0 002.05053-2.05582zm-4.9239-1.66687h2.86809a1.14035 1.14035 0 011.1377 1.13771v.52916a1.14035 1.14035 0 01-1.1377 1.13771h-2.86808z"
                id="path159" fill="#0f0" stroke-width=".26458" />
            <path class="cls-1" id="polygon161"
                transform="translate(-14.9826 144.66085) scale(.26458)" fill="#0f0"
                d="M67.87 31.53L57 4.63 55.13 0l-1.87 4.63-10.87 26.9h3.74l9-22.27 9 22.27z" />
            <path class="cls-1"
                d="M38.31242 144.66085h.58473v.11642h-.2249v.69321h-.13229v-.69321h-.22754z"
                id="path163" fill="#0f0" stroke-width=".26458" />
            <path class="cls-1"
                d="M39.12205 144.6635h.2249l.17462.63235.17992-.63235h.22754v.80698h-.12965v-.66411h-.01323l-.1905.63236h-.13494l-.20373-.63236v.66411h-.12964z"
                id="path165" fill="#0f0" stroke-width=".26458" />
            <path class="cls-1" id="polygon167"
                transform="translate(-14.9826 144.66085) scale(.26458)" fill="#0f0"
                d="M104.5 3.47L90.3 28.06l-2.01 3.47h20.2l2-3.47H94.3l14.2-24.59 2-3.47H88.29v3.47z" />
            <path class="cls-1" id="polygon169"
                transform="translate(-14.9826 144.66085) scale(.26458)" fill="#0f0"
                d="M152.51 3.47l2-3.47h-22.07v3.47z" />
            <path class="cls-1" id="polygon171"
                transform="translate(-14.9826 144.66085) scale(.26458)" fill="#0f0"
                d="M152.51 17.5l2-3.47h-22.07v3.47z" />
            <path class="cls-1" id="polygon173"
                transform="translate(-14.9826 144.66085) scale(.26458)" fill="#0f0"
                d="M152.51 31.53l2-3.47h-22.07v3.47z" />
            <path class="cls-1" id="polygon179"
                transform="translate(-14.9826 144.66085) scale(.26458)" fill="#0f0"
                d="M67.87 31.53L57 4.63 55.13 0l-1.87 4.63-10.87 26.9h3.74l9-22.27 9 22.27z" />
        </g>
    </g>
</svg>